<?xml version="1.0" encoding="UTF-8"?>
<svg id="layer" xmlns="http://www.w3.org/2000/svg" viewBox="0 0 64 64">
  <defs>
    <style>
      .cls-1 {
        fill: #5741d9;
        stroke-width: 0px;
      }
    </style>
  </defs>
  <path id="_0da8ffff" data-name="#0da8ffff" class="cls-1" d="M29.94,6.84c5.56-.37,11.23.75,16.2,3.26,7.38,3.64,13.26,10.16,15.99,17.86,1.23,3.42,1.87,7,1.87,10.64v13.42c0,.53,0,1.12-.11,1.66-.32,1.34-1.28,2.57-2.57,3.15-.91.43-1.92.48-2.83.32-2.03-.37-3.64-2.3-3.64-4.38v-12.51c.05-1.18.05-2.46-.59-3.48-1.02-1.92-3.58-2.83-5.56-2.03-1.71.59-2.94,2.35-2.99,4.17v12.67c0,.8.05,1.6-.21,2.35-.43,1.5-1.66,2.67-3.15,3.1-1.98.53-4.22-.32-5.19-2.14-.7-1.07-.64-2.41-.59-3.64v-12.62c-.05-2.14-1.82-4.06-3.9-4.33-1.39-.21-2.83.27-3.85,1.23-.91.86-1.39,2.09-1.39,3.31v12.24c0,1.02.11,2.09-.27,3.05-.59,1.76-2.35,3.05-4.22,2.99-1.92.11-3.8-1.23-4.38-2.99-.32-.91-.27-1.82-.27-2.78v-12.67c0-2.09-1.66-4.01-3.69-4.38-1.87-.37-3.9.53-4.87,2.25-.37.7-.59,1.5-.59,2.3v13.74c0,1.34-.59,2.67-1.6,3.53-1.55,1.34-4.06,1.44-5.67.21-1.18-.8-1.87-2.19-1.87-3.64v-13.9c0-5.24,1.34-10.48,3.85-15.13,2.03-3.8,4.87-7.16,8.23-9.84,4.97-4.17,11.34-6.63,17.86-7h0Z"/>
</svg>