<?xml version="1.0" encoding="UTF-8"?>
<svg id="layer" xmlns="http://www.w3.org/2000/svg" viewBox="0 0 64 64">
  <defs>
    <style>
      .cls-1 {
        fill: none;
        stroke: #000;
        stroke-miterlimit: 10;
      }
    </style>
  </defs>
  <path id="_0da8ffff" data-name="#0da8ffff" class="cls-1" d="M29.97,7.23c5.47-.37,11.05.74,15.95,3.21,7.26,3.58,13.05,10,15.74,17.58,1.21,3.37,1.84,6.89,1.84,10.47v13.21c0,.53,0,1.11-.11,1.63-.32,1.32-1.26,2.53-2.53,3.11-.89.42-1.89.47-2.79.32-2-.37-3.58-2.26-3.58-4.32v-12.32c.05-1.16.05-2.42-.58-3.42-1-1.89-3.53-2.79-5.47-2-1.68.58-2.89,2.32-2.95,4.11v12.47c0,.79.05,1.58-.21,2.32-.42,1.47-1.63,2.63-3.11,3.05-1.95.53-4.16-.32-5.11-2.11-.68-1.05-.63-2.37-.58-3.58v-12.42c-.05-2.11-1.79-4-3.84-4.26-1.37-.21-2.79.26-3.79,1.21-.89.84-1.37,2.05-1.37,3.26v12.05c0,1,.11,2.05-.26,3-.58,1.74-2.32,3-4.16,2.95-1.89.11-3.74-1.21-4.32-2.95-.32-.89-.26-1.79-.26-2.74v-12.47c0-2.05-1.63-3.95-3.63-4.32-1.84-.37-3.84.53-4.79,2.21-.37.68-.58,1.47-.58,2.26v13.53c0,1.32-.58,2.63-1.58,3.47-1.53,1.32-4,1.42-5.58.21-1.16-.79-1.84-2.16-1.84-3.58v-13.68c0-5.16,1.32-10.32,3.79-14.89,2-3.74,4.79-7.05,8.11-9.68,4.89-4.11,11.16-6.53,17.58-6.89h0Z"/>
</svg>