<svg width="64" height="64" viewBox="0 0 64 64" fill="none" xmlns="http://www.w3.org/2000/svg">
<path d="M21.1398 31.6343L20.7858 31.9879L21.1396 32.3417L40.1325 51.3346L40.4861 51.6881L40.8396 51.3346L52.8113 39.3629L52.8114 39.3629L52.8153 39.3589C54.7148 37.4162 57.8653 37.4192 59.7383 39.3568L59.7382 39.3569L59.7482 39.3668C61.6909 41.2663 61.6879 44.4168 59.7503 46.2898L59.7502 46.2898L59.7443 46.2958L43.9684 62.0717C43.9677 62.0723 43.9671 62.073 43.9664 62.0736C42.0178 63.9769 38.9047 63.9737 36.9829 62.0746C36.9826 62.0743 36.9822 62.0739 36.9819 62.0736L14.2067 39.2984L13.3531 38.4448V39.6519V53.1707C13.3531 55.8725 11.1702 58.0973 8.42655 58.0973C5.72475 58.0973 3.5 55.9144 3.5 53.1707V10.7817C3.5 8.0799 5.68286 5.85515 8.42655 5.85515C11.1284 5.85515 13.3531 8.03801 13.3531 10.7817V24.3481V25.5552L14.2067 24.7016L36.9799 1.92835C36.9805 1.92772 36.9812 1.92709 36.9818 1.92646C38.9305 0.023129 42.0436 0.0262333 43.9655 1.92546C43.9658 1.92577 43.9661 1.92608 43.9664 1.92639L59.7403 17.7002C59.7409 17.7009 59.7415 17.7015 59.7421 17.7021C61.6477 19.653 61.6389 22.7629 59.7473 24.6341C57.7961 26.5409 54.6848 26.5321 52.8134 24.6392L52.8113 24.6372L40.8396 12.6654L40.4863 12.3121L40.1327 12.6652L21.1398 31.6343ZM35.5119 31.9881C35.5119 29.2486 37.7317 27.0636 40.4821 27.0616C43.1841 27.1069 45.3673 29.2901 45.4126 31.9921V32.0357C45.4126 34.7766 43.1907 36.9623 40.4385 36.9623C37.6976 36.9623 35.5119 34.7404 35.5119 31.9881Z" stroke="black"/>
</svg>
