<svg width="64" height="64" viewBox="0 0 64 64" fill="none" xmlns="http://www.w3.org/2000/svg">
<path d="M21.4931 31.9881L40.4861 50.981L52.4578 39.0093C54.5523 36.8672 58.0271 36.8672 60.0978 39.0093C62.2399 41.1038 62.2399 44.5787 60.0978 46.6493L44.318 62.4292C42.1759 64.5236 38.7486 64.5236 36.6303 62.4292L13.8531 39.6519V53.1707C13.8531 56.1458 11.4492 58.5973 8.42655 58.5973C5.45147 58.5973 3 56.1934 3 53.1707V10.7817C3 7.80662 5.40386 5.35515 8.42655 5.35515C11.4016 5.35515 13.8531 7.75902 13.8531 10.7817V24.3481L36.6303 1.57084C38.7724 -0.523615 42.1997 -0.523615 44.318 1.57084L60.0978 17.3507C62.1923 19.4927 62.1923 22.92 60.0978 24.9907C57.9557 27.0852 54.5285 27.0852 52.4578 24.9907L40.4861 13.019L21.4931 31.9881ZM40.4861 26.5615C37.4634 26.5615 35.0119 28.9654 35.0119 31.9881C35.0119 35.0108 37.4158 37.4623 40.4385 37.4623C43.4611 37.4623 45.9126 35.0584 45.9126 32.0357V31.9881C45.865 29.013 43.4611 26.6092 40.4861 26.5615Z" fill="#23AF91"/>
</svg>
