<?xml version="1.0" encoding="UTF-8"?>
<svg id="Layer_1" data-name="Layer 1" xmlns="http://www.w3.org/2000/svg" viewBox="0 0 64 64">
  <defs>
    <style>
      .cls-1 {
        fill: #fff;
      }

      .cls-1, .cls-2 {
        stroke: #000;
        stroke-miterlimit: 10;
      }

      .cls-2 {
        fill: none;
      }
    </style>
  </defs>
  <path class="cls-2" d="M63,32c0,17.12-13.88,31-31,31S1,49.12,1,32,14.88,1,32,1s31,13.88,31,31Z"/>
  <path class="cls-1" d="M16.29,33.04l.13-.21,8.06-12.62c.12-.18.39-.17.48.04,1.35,3.02,2.51,6.77,1.97,9.11-.23.96-.87,2.26-1.59,3.47-.09.18-.19.35-.3.51-.05.08-.14.12-.23.12h-8.29c-.22,0-.35-.24-.24-.42Z"/>
  <path class="cls-1" d="M52.24,35.39v2c0,.11-.07.22-.17.26-.62.27-2.76,1.25-3.65,2.48-2.27,3.16-4,7.67-7.87,7.67h-16.16c-5.73,0-10.37-4.66-10.37-10.4v-.18c0-.15.12-.28.28-.28h9.01c.18,0,.31.17.29.34-.06.59.04,1.18.32,1.73.54,1.09,1.64,1.76,2.84,1.76h4.46v-3.48h-4.41c-.23,0-.36-.26-.23-.45.05-.07.1-.15.16-.24.42-.59,1.01-1.51,1.61-2.56.4-.71.8-1.46,1.11-2.22.06-.14.11-.28.17-.41.09-.24.18-.47.24-.69.06-.19.11-.39.17-.58.15-.64.21-1.32.21-2.03,0-.28-.01-.57-.04-.84-.01-.3-.05-.61-.09-.91-.03-.27-.07-.53-.12-.81-.06-.4-.15-.81-.25-1.21l-.04-.15c-.08-.28-.14-.54-.23-.82-.25-.87-.54-1.72-.85-2.51-.11-.32-.24-.62-.37-.92-.19-.46-.38-.87-.55-1.26-.09-.18-.17-.34-.24-.51-.09-.19-.18-.38-.26-.55-.06-.14-.14-.26-.19-.39l-.54-1.01c-.08-.14.05-.3.2-.26l3.41.92h0s0,0,.01,0l.45.12.49.14.18.05v-2.03c0-.98.78-1.77,1.75-1.77.48,0,.92.2,1.24.52.32.32.51.76.51,1.25v3.01l.36.1s.06.02.08.04c.09.07.22.17.38.29.13.1.26.23.43.35.33.26.72.61,1.15,1,.11.1.23.2.33.3.55.52,1.18,1.12,1.77,1.79.17.19.33.38.49.58.17.2.34.4.49.61.2.27.42.54.61.83.09.14.19.28.28.41.24.37.46.75.66,1.12.09.18.18.37.25.55.23.51.4,1.02.52,1.54.04.11.06.23.07.34v.03c.04.15.05.32.06.48.05.53.03,1.06-.09,1.59-.05.23-.11.44-.19.67-.08.22-.15.44-.25.66-.19.44-.42.89-.68,1.3-.09.15-.19.32-.29.47-.11.16-.23.32-.33.46-.14.19-.29.39-.44.57-.14.19-.28.38-.43.54-.21.25-.42.49-.63.72-.13.15-.26.3-.4.44-.14.15-.28.29-.4.42-.21.21-.39.38-.54.52l-.35.32c-.05.04-.12.07-.19.07h-2.71v3.48h3.41c.76,0,1.49-.27,2.08-.77.2-.18,1.08-.93,2.11-2.08.04-.04.08-.07.13-.08l9.43-2.73c.18-.05.35.08.35.27h0Z"/>
</svg>