<?xml version="1.0" encoding="UTF-8"?>
<svg id="Layer_1" data-name="Layer 1" xmlns="http://www.w3.org/2000/svg" viewBox="0 0 64 64">
  <defs>
    <style>
      .cls-1 {
        fill: #2081e2;
      }

      .cls-1, .cls-2 {
        stroke-width: 0px;
      }

      .cls-2 {
        fill: #fff;
      }
    </style>
  </defs>
  <path class="cls-1" d="M63.5,32c0,17.4-14.1,31.5-31.5,31.5S.5,49.4.5,32,14.6.5,32,.5s31.5,14.1,31.5,31.5Z"/>
  <path class="cls-2" d="M16.04,33.06l.14-.21,8.19-12.82c.12-.19.4-.17.49.04,1.37,3.07,2.55,6.88,2,9.26-.24.98-.88,2.3-1.61,3.52-.09.18-.2.35-.31.52-.05.08-.14.12-.23.12h-8.43c-.23,0-.36-.25-.24-.43Z"/>
  <path class="cls-2" d="M52.57,35.44v2.03c0,.12-.07.22-.17.27-.63.27-2.81,1.27-3.71,2.52-2.3,3.21-4.06,7.79-8,7.79h-16.42c-5.82,0-10.53-4.73-10.53-10.57v-.19c0-.16.13-.28.28-.28h9.15c.18,0,.31.17.3.35-.06.6.05,1.2.33,1.76.54,1.1,1.67,1.79,2.89,1.79h4.53v-3.54h-4.48c-.23,0-.37-.27-.23-.45.05-.07.1-.15.16-.24.42-.6,1.03-1.54,1.63-2.6.41-.72.81-1.49,1.13-2.26.06-.14.12-.28.17-.42.09-.25.18-.48.24-.71.06-.19.12-.4.17-.59.15-.65.22-1.35.22-2.06,0-.28-.01-.58-.04-.86-.01-.31-.05-.61-.09-.92-.03-.27-.07-.54-.13-.82-.06-.41-.16-.82-.26-1.23l-.04-.16c-.08-.28-.14-.55-.23-.83-.26-.88-.55-1.74-.86-2.55-.11-.32-.24-.63-.37-.94-.19-.46-.39-.88-.56-1.28-.09-.18-.17-.35-.25-.51-.09-.19-.18-.38-.27-.56-.06-.14-.14-.27-.19-.4l-.55-1.02c-.08-.14.05-.3.2-.26l3.46.94h0s0,0,.01,0l.46.13.5.14.18.05v-2.06c0-.99.8-1.8,1.78-1.8.49,0,.94.2,1.26.53.32.33.52.77.52,1.27v3.06l.37.1s.06.02.08.04c.09.07.22.17.39.29.13.1.27.23.44.36.33.27.73.61,1.17,1.01.12.1.23.2.33.31.56.52,1.19,1.14,1.8,1.82.17.19.33.39.5.59.17.21.35.41.5.61.2.27.42.55.61.85.09.14.19.28.28.42.25.37.46.76.67,1.14.09.18.18.37.26.56.23.51.41,1.04.53,1.56.04.11.06.24.07.35v.03c.04.16.05.32.06.49.05.54.03,1.07-.09,1.61-.05.23-.11.45-.19.68-.08.22-.16.45-.26.67-.19.45-.42.9-.7,1.32-.09.16-.19.32-.29.48-.11.16-.23.32-.33.47-.14.19-.29.4-.45.58-.14.19-.28.38-.44.55-.22.26-.42.5-.64.73-.13.15-.27.31-.41.45-.14.16-.28.29-.41.42-.22.22-.4.39-.55.52l-.36.33c-.05.05-.12.07-.19.07h-2.76v3.54h3.47c.78,0,1.51-.28,2.11-.78.2-.18,1.09-.95,2.15-2.11.04-.04.08-.07.13-.08l9.58-2.77c.18-.05.36.08.36.27h0Z"/>
</svg>