<?xml version="1.0" encoding="UTF-8"?>
<svg id="Layer_1" data-name="Layer 1" xmlns="http://www.w3.org/2000/svg" viewBox="0 0 64 64">
  <defs>
    <style>
      .cls-1 {
        fill-rule: evenodd;
      }

      .cls-1, .cls-2 {
        fill: none;
        stroke: #000;
        stroke-miterlimit: 10;
      }
    </style>
  </defs>
  <path class="cls-2" d="M61.95,39.76l-11.93,17.61-.1-.07c-4.29,5.75-18.13,3.37-31.2-5.88C5.74,42.24-1.75,30.56,1.97,24.26l-.1-.07L13.8,6.85c4.14-5.95,18.13-3.65,31.32,5.7,13.47,8.8,20.73,21.23,16.84,27.21h0Z"/>
  <path class="cls-1" d="M60.14,38.75c-3.65,5.18-16.32,2.58-28.49-5.95C19.23,24.24,11.96,13.38,15.58,8.19c3.62-5.18,16.32-2.58,28.49,5.95,12.15,8.56,19.42,19.42,16.07,24.6h0ZM48.74,30.96c-1.81,2.58-8.03,1.31-14.26-2.85-5.95-4.14-9.57-9.57-7.76-12.15,1.81-2.58,8.03-1.31,14.26,2.85,5.95,4.14,9.57,9.57,7.76,12.15Z"/>
</svg>