<svg width="14" height="12" viewBox="0 0 14 12" fill="none" xmlns="http://www.w3.org/2000/svg">
<path d="M12.5469 1.11406C11.8322 0.399325 10.886 0.00868101 9.87607 0.00868101C8.86618 0.00868101 7.91706 0.402218 7.20233 1.11695L6.82905 1.49023L6.44998 1.11116C5.73525 0.396431 4.78323 0 3.77335 0C2.76635 0 1.81723 0.393537 1.10539 1.10538C0.39066 1.82011 -0.00287781 2.76923 1.58449e-05 3.77912C1.58449e-05 4.789 0.396447 5.73523 1.11118 6.44996L6.54547 11.8843C6.62071 11.9595 6.72198 12 6.82037 12C6.91875 12 7.02003 11.9624 7.09527 11.8871L12.5411 6.46154C13.2559 5.7468 13.6494 4.79769 13.6494 3.7878C13.6523 2.77791 13.2617 1.82879 12.5469 1.11406ZM11.9913 5.90885L6.82037 11.0596L1.66098 5.90017C1.09382 5.33301 0.781304 4.58066 0.781304 3.77912C0.781304 2.97757 1.09092 2.22522 1.65808 1.66096C2.22235 1.0967 2.9747 0.784181 3.77335 0.784181C4.57489 0.784181 5.33013 1.0967 5.89729 1.66385L6.55126 2.31782C6.70462 2.47118 6.95058 2.47118 7.10395 2.31782L7.75213 1.66964C8.31928 1.10248 9.07453 0.789969 9.87318 0.789969C10.6718 0.789969 11.4242 1.10248 11.9913 1.66675C12.5585 2.2339 12.8681 2.98625 12.8681 3.7878C12.871 4.58934 12.5585 5.34169 11.9913 5.90885Z" fill="#B7B7B7"/>
</svg>
