<?xml version="1.0" encoding="utf-8"?>
<!-- Generator: Adobe Illustrator 28.2.0, SVG Export Plug-In . SVG Version: 6.00 Build 0)  -->
<svg version="1.1" id="eo0viI1bVxK1" shape-rendering="geometricPrecision" text-rendering="geometricPrecision"
	 xmlns="http://www.w3.org/2000/svg" xmlns:xlink="http://www.w3.org/1999/xlink" x="0px" y="0px" viewBox="0 0 62 83"
	 style="enable-background:new 0 0 62 83;" xml:space="preserve">
<style type="text/css">
	.st0{fill:#FFFFFF;filter:url(#Adobe_OpacityMaskFilter);}
	.st1{mask:url(#eo0viI1bVxK4_00000013158434794164011890000004794511809025706900_);}
	.st2{fill:#FFFFFF;}
</style>
<defs>
	<filter id="Adobe_OpacityMaskFilter" filterUnits="userSpaceOnUse" x="1.6" y="2.2" width="58.7" height="78.5">
		<feColorMatrix  type="matrix" values="1 0 0 0 0  0 1 0 0 0  0 0 1 0 0  0 0 0 1 0"/>
	</filter>
</defs>
<mask maskUnits="userSpaceOnUse" x="1.6" y="2.2" width="58.7" height="78.5" id="eo0viI1bVxK4_00000013158434794164011890000004794511809025706900_">
	<rect x="1.4" y="1.7" class="st0" width="59" height="80"/>
	<path d="M49.4,31l-4,20.5h6.3c1.4,0,2.6,0.5,3.6,1.5s1.5,2.2,1.5,3.6c0,1.3-0.5,2.5-1.5,3.5c-1,0.9-2.2,1.4-3.6,1.4h-8.3l-2.7,14.1
		c-0.2,1.1-0.8,2-1.7,2.7c-0.8,0.7-1.9,1.1-3.2,1.1c-1.5,0-2.8-0.5-3.8-1.4c-1-1-1.5-2.2-1.5-3.7c0-0.6,0-1.1,0.1-1.4l2.2-11.5H21.5
		l-2.8,14.1c-0.2,1.1-0.8,2-1.7,2.7c-0.8,0.7-1.8,1.1-2.9,1.1c-1.5,0-2.8-0.5-3.8-1.5S8.8,75.5,8.8,74c0-0.5,0-0.9,0.1-1.2l2.2-11.5
		H8.2c-1.4,0-2.6-0.5-3.6-1.5s-1.5-2.2-1.5-3.6c0-1.3,0.5-2.5,1.5-3.4c1-1,2.2-1.5,3.6-1.5h4.9l4-20.5h-6.8c-1.4,0-2.6-0.5-3.6-1.5
		s-1.5-2.2-1.5-3.6c0-1.3,0.5-2.5,1.5-3.4c1-1,2.2-1.5,3.6-1.5h8.8l2.6-13.6c0.2-1.1,0.7-2,1.6-2.7c0.8-0.7,1.9-1.1,3.2-1.1
		c1.5,0,2.8,0.5,3.8,1.5s1.5,2.2,1.5,3.7c0,0.6,0,1-0.1,1.3l-2.2,10.9h11.4l2.6-13.6c0.2-1.1,0.7-2,1.6-2.7c0.9-0.7,2-1.1,3.3-1.1
		c1.5,0,2.8,0.5,3.8,1.5c1.1,1,1.6,2.2,1.6,3.8c0,0.5,0,0.9-0.1,1.2l-2.1,10.9h2.4c1.4,0,2.6,0.5,3.6,1.5s1.5,2.2,1.5,3.6
		c0,1.3-0.5,2.5-1.5,3.5c-1,0.9-2.2,1.4-3.6,1.4H49.4z M38.9,31H27.5l-4.1,20.5h11.5L38.9,31z"/>
</mask>
<g transform="translate(1.403252 3.734764)" class="st1">
	<path class="st2" d="M48,27.2v-1.5h-1.2L46.5,27L48,27.2z M44,47.8l-1.5-0.3l-0.3,1.8H44C44,49.3,44,47.8,44,47.8z M53.9,49.2
		l1.1-1.1L53.9,49.2z M53.9,56.3l1,1.1l0,0l0,0L53.9,56.3z M42,57.6v-1.5h-1.2l-0.2,1.2L42,57.6z M39.3,71.7l-1.5-0.3l0,0L39.3,71.7
		z M37.6,74.5l-0.9-1.2l0,0l0,0C36.6,73.3,37.6,74.5,37.6,74.5z M30.6,74.2l-1.1,1.1l0,0l0,0L30.6,74.2z M29.3,69.1l1.5,0.4l0,0l0,0
		L29.3,69.1z M31.5,57.6l1.5,0.3l0.3-1.8h-1.8V57.6z M20.1,57.6v-1.5h-1.2l-0.2,1.2L20.1,57.6z M17.3,71.7l-1.5-0.3l0,0l0,0
		L17.3,71.7z M15.6,74.5l-0.9-1.2l0,0l0,0C14.6,73.3,15.6,74.5,15.6,74.5z M8.9,74.1L9.9,73L8.9,74.1z M7.5,69.1L9,69.5l0,0l0,0
		L7.5,69.1z M9.7,57.6l1.5,0.3l0.3-1.8H9.7C9.7,56.1,9.7,57.6,9.7,57.6z M3.2,56.2l1.1-1.1L3.2,56.2z M3.2,49.2l1,1.1l0,0l0,0
		L3.2,49.2z M11.7,47.8v1.5H13l0.2-1.2L11.7,47.8z M15.7,27.2l1.5,0.3l0.3-1.8h-1.8V27.2z M5.3,25.8l1.1-1.1L5.3,25.8z M5.3,18.8
		l1,1.1l0,0l0,0L5.3,18.8z M17.7,17.4v1.5h1.2l0.2-1.2C19.2,17.6,17.7,17.4,17.7,17.4z M20.3,3.8l1.5,0.3l0,0L20.3,3.8z M21.9,1.1
		l1,1.2v0L21.9,1.1z M30.2,6.4l-1.5-0.4l0,0l0,0C28.8,6.1,30.2,6.4,30.2,6.4z M28,17.4l-1.5-0.3l-0.4,1.8H28
		C28,18.9,28,17.4,28,17.4z M39.4,17.4v1.5h1.2l0.2-1.2C40.9,17.6,39.4,17.4,39.4,17.4z M42,3.8l1.5,0.3l0,0L42,3.8z M43.6,1.1
		l-0.9-1.2l0,0l0,0L43.6,1.1z M50.6,1.5l-1.1,1.1l0,0l0,0L50.6,1.5z M52.1,6.4l-1.5-0.4l0,0l0,0L52.1,6.4z M50,17.4l-1.5-0.3
		l-0.3,1.8H50C50,18.9,50,17.4,50,17.4z M56,25.9l1,1.1l0,0l0,0L56,25.9z M37.5,27.2l1.5,0.3l0.3-1.8h-1.8
		C37.5,25.7,37.5,27.2,37.5,27.2z M26.1,27.2v-1.5h-1.2L24.7,27C24.7,27,26.1,27.2,26.1,27.2z M22,47.8l-1.5-0.3l-0.4,1.8H22V47.8z
		 M33.5,47.8v1.5h1.2L35,48L33.5,47.8z M46.5,27l-4,20.5l2.9,0.6l4-20.5L46.5,27z M44,49.3h6.3v-3H44V49.3z M50.3,49.3
		c1,0,1.8,0.3,2.5,1l2.1-2.1c-1.3-1.3-2.8-1.9-4.6-1.9V49.3z M52.8,50.3c0.7,0.7,1,1.5,1,2.5h3c0-1.8-0.6-3.4-1.9-4.6
		C55,48.2,52.8,50.3,52.8,50.3z M53.9,52.8c0,0.9-0.3,1.7-1,2.4l2.1,2.1c1.2-1.2,1.9-2.8,1.9-4.5H53.9z M52.9,55.2
		c-0.7,0.6-1.5,1-2.6,1v3c1.8,0,3.3-0.6,4.6-1.8L52.9,55.2z M50.3,56.1H42v3h8.3V56.1z M40.5,57.4l-2.7,14.1l2.9,0.6l2.7-14.1
		L40.5,57.4L40.5,57.4z M37.8,71.5c-0.1,0.8-0.5,1.3-1.1,1.8l1.8,2.4c1.2-0.9,2-2.2,2.2-3.6C40.7,72,37.8,71.5,37.8,71.5z
		 M36.6,73.3c-0.5,0.4-1.2,0.7-2.2,0.7v3c1.6,0,3-0.4,4.1-1.4L36.6,73.3z M34.4,74c-1.2,0-2.1-0.4-2.8-1l-2,2.2
		c1.3,1.2,2.9,1.8,4.8,1.8C34.4,77,34.4,74,34.4,74z M31.7,73.1c-0.7-0.7-1-1.5-1-2.6h-3c0,1.8,0.6,3.5,1.9,4.7
		C29.6,75.2,31.7,73.1,31.7,73.1z M30.7,70.5c0-0.6,0-0.9,0.1-1l-2.9-0.7c-0.1,0.5-0.1,1.1-0.1,1.7H30.7z M30.8,69.4L33,57.9
		L30,57.4l-2.2,11.5C27.8,68.8,30.8,69.4,30.8,69.4z M31.5,56.1H20.1v3h11.4V56.1z M18.7,57.3l-2.8,14.1l2.9,0.6l2.8-14.1L18.7,57.3
		z M15.8,71.5c-0.1,0.8-0.5,1.3-1.1,1.8l1.8,2.4c1.2-0.9,2-2.2,2.2-3.6L15.8,71.5z M14.6,73.3c-0.6,0.5-1.2,0.7-2,0.7v3
		c1.5,0,2.8-0.5,3.9-1.4C16.6,75.6,14.6,73.3,14.6,73.3z M12.7,74c-1.2,0-2.1-0.4-2.7-1l-2.1,2.1c1.3,1.3,3,1.9,4.8,1.9V74z M9.9,73
		c-0.7-0.7-1-1.5-1-2.7h-3c0,1.9,0.6,3.6,1.9,4.8L9.9,73z M8.9,70.3c0-0.4,0-0.7,0.1-0.8l-2.9-0.7c-0.1,0.5-0.1,1-0.1,1.5H8.9z
		 M9,69.4l2.2-11.5l-2.9-0.6L6,68.8C6,68.8,9,69.4,9,69.4z M9.7,56.1H6.8v3h2.9V56.1z M6.8,56.1c-1,0-1.8-0.3-2.5-1l-2.1,2.1
		c1.3,1.3,2.8,1.9,4.6,1.9C6.8,59.1,6.8,56.1,6.8,56.1z M4.3,55.1c-0.7-0.7-1-1.5-1-2.5h-3c0,1.8,0.6,3.4,1.9,4.6
		C2.1,57.2,4.3,55.1,4.3,55.1z M3.2,52.6c0-0.9,0.3-1.6,1-2.3l-2-2.2c-1.3,1.2-2,2.7-2,4.5H3.2z M4.3,50.3c0.7-0.7,1.5-1,2.5-1v-3
		c-1.8,0-3.4,0.6-4.6,1.9L4.3,50.3z M6.8,49.3h4.9v-3H6.8V49.3z M13.2,48l4-20.5L14.2,27l-4,20.5L13.2,48z M15.7,25.7H8.9v3h6.8
		V25.7z M8.9,25.7c-1,0-1.8-0.3-2.5-1l-2.1,2.1c1.3,1.3,2.8,1.9,4.6,1.9C8.9,28.7,8.9,25.7,8.9,25.7z M6.4,24.7
		c-0.7-0.7-1-1.5-1-2.5h-3c0,1.8,0.6,3.4,1.9,4.6L6.4,24.7z M5.3,22.2c0-0.9,0.3-1.6,1-2.3l-2-2.2c-1.3,1.2-2,2.7-2,4.5H5.3z
		 M6.4,19.9c0.7-0.7,1.5-1,2.5-1v-3c-1.8,0-3.4,0.6-4.6,1.9L6.4,19.9z M8.9,18.9h8.8v-3H8.9V18.9z M19.2,17.6l2.6-13.6l-2.9-0.6
		l-2.6,13.6L19.2,17.6z M21.8,4.1c0.1-0.8,0.5-1.4,1.1-1.9L21-0.1c-1.1,0.9-1.8,2.2-2.1,3.6L21.8,4.1z M22.9,2.2
		c0.5-0.4,1.2-0.7,2.2-0.7v-3c-1.6,0-3,0.4-4.1,1.4C21-0.1,22.9,2.2,22.9,2.2z M25.1,1.5c1.2,0,2.1,0.4,2.7,1l2.1-2.1
		c-1.3-1.3-3-1.9-4.8-1.9C25.1-1.5,25.1,1.5,25.1,1.5z M27.8,2.5c0.7,0.7,1,1.5,1,2.6h3c0-1.8-0.6-3.5-1.9-4.7
		C29.9,0.4,27.8,2.5,27.8,2.5z M28.8,5.2c0,0.5,0,0.8-0.1,0.9l2.9,0.7c0.1-0.5,0.1-1,0.1-1.6H28.8z M28.8,6.1l-2.2,10.9l2.9,0.6
		l2.2-10.9C31.7,6.7,28.8,6.1,28.8,6.1z M28,18.9h11.4v-3H28V18.9z M40.9,17.6l2.6-13.6l-2.9-0.6l-2.6,13.6
		C37.9,17.1,40.9,17.6,40.9,17.6z M43.5,4.1c0.1-0.8,0.5-1.4,1.1-1.9l-1.9-2.3c-1.1,0.9-1.8,2.2-2.1,3.6L43.5,4.1z M44.5,2.2
		c0.6-0.5,1.4-0.7,2.3-0.7v-3c-1.6,0-3,0.4-4.2,1.4C42.7-0.1,44.5,2.2,44.5,2.2z M46.8,1.5c1.2,0,2.1,0.4,2.7,1l2.1-2.1
		c-1.3-1.3-3-1.9-4.8-1.9C46.8-1.5,46.8,1.5,46.8,1.5z M49.6,2.6c0.7,0.7,1.1,1.5,1.1,2.7h3c0-1.9-0.7-3.6-2.1-4.9
		C51.7,0.4,49.6,2.6,49.6,2.6z M50.7,5.3c0,0.4,0,0.7-0.1,0.8l2.9,0.7c0.1-0.5,0.2-1,0.2-1.5C53.7,5.3,50.7,5.3,50.7,5.3z M50.6,6.1
		l-2.1,10.9l2.9,0.6l2.1-10.9C53.6,6.7,50.6,6.1,50.6,6.1z M50,18.9h2.4v-3H50V18.9z M52.4,18.9c1,0,1.8,0.3,2.5,1l2.1-2.1
		c-1.3-1.3-2.8-1.9-4.6-1.9V18.9z M54.9,19.9c0.7,0.7,1,1.5,1,2.5h3c0-1.8-0.6-3.4-1.9-4.6L54.9,19.9z M56,22.4c0,0.9-0.3,1.7-1,2.4
		l2.1,2.1c1.2-1.2,1.9-2.8,1.9-4.5H56z M55,24.8c-0.7,0.6-1.5,1-2.6,1v3c1.8,0,3.3-0.6,4.6-1.8C57,27,55,24.8,55,24.8z M52.4,25.7
		H48v3h4.4V25.7z M37.5,25.7H26.1v3h11.4V25.7z M24.7,27l-4.1,20.5l2.9,0.6l4.1-20.5C27.6,27.5,24.7,27,24.7,27z M22,49.3h11.5v-3
		H22C22,46.3,22,49.3,22,49.3z M35,48l4-20.5L36,27l-4,20.5C32,47.5,35,48,35,48z"/>
</g>
</svg>
