<svg cache-id="f7ff9d3d25f547b8b521991d409d95c1" id="eo0viI1bVxK1" xmlns="http://www.w3.org/2000/svg" xmlns:xlink="http://www.w3.org/1999/xlink" viewBox="-1 0 62 83" shape-rendering="geometricPrecision" text-rendering="geometricPrecision"><g transform="translate(1.403252 3.734764)" mask="url(#eo0viI1bVxK4)"><path d="M47.0038,27.247v-1.5h-1.2359l-.2364,1.213l1.4723.287Zm-3.997,20.5106l-1.4723-.2869-.3482,1.7869h1.8205v-1.5Zm9.8872,1.4726l1.0607-1.0607-1.0607,1.0607Zm0,7.0472l1.0207,1.0992.0204-.0189.0196-.0196-1.0607-1.0607ZM41.0084,57.6448v-1.5h-1.237l-.2356,1.2143l1.4726.2857ZM38.2736,71.7393l-1.4726-.2857-.0017.0093l1.4743.2764Zm-1.6829,2.7348l-.9146-1.189-.0232.0179-.0225.0188.9603,1.1523Zm-6.9421-.3156l-1.0607,1.0607.0197.0196.0203.0189l1.0207-1.0992Zm-1.3674-5.0487l1.4552.3638.01-.0398.0077-.0403-1.4729-.2837Zm2.2089-11.465l1.4729.2838.3436-1.7838h-1.8165v1.5Zm-11.3598,0v-1.5h-1.2279l-.2425,1.2037l1.4704.2963ZM16.2904,71.7393l-1.4705-.2963-.002.01-.0018.0099l1.4743.2764Zm-1.683,2.7348l-.9145-1.189-.0232.0179-.0225.0188.9602,1.1523Zm-6.73166-.4207l1.06065-1.0607-1.06065,1.0607ZM6.50836,69.1098l1.45521.3638.00994-.0398.00776-.0403-1.47291-.2837ZM8.7172,57.6448l1.4729.2838.3437-1.7838h-1.8166v1.5ZM2.19586,56.1723l1.06066-1.0607-1.06066,1.0607Zm0-6.9421l1.02067,1.0992.02035-.0189.01964-.0197-1.06066-1.0606Zm8.51984-1.4726v1.5h1.2359l.2364-1.2131-1.4723-.2869ZM14.7126,27.247l1.4723.2869.3482-1.7869h-1.8205v1.5ZM4.29951,25.7744l1.06067-1.0607-1.06067,1.0607Zm0-6.9421l1.02068,1.0992.02035-.0189.01964-.0196-1.06067-1.0607ZM16.7111,17.3598v1.5h1.2372l.2354-1.2147-1.4726-.2853ZM19.3407,3.79116l1.4726.28539.0017-.00896-1.4743-.27643ZM20.9184,1.0564l.9603,1.15234v-.00001L20.9184,1.0564Zm8.3095,5.36433l-1.4552-.3638-.0084.03329-.0068.03362l1.4704.29689ZM27.019,17.3598l-1.4703-.2969-.3628,1.7969h1.8331v-1.5Zm11.3598,0v1.5h1.2372l.2354-1.2147-1.4726-.2853ZM41.0084,3.79116l1.4726.28539.0017-.00896-1.4743-.27643ZM42.5861,1.0564l-.9146-1.188928-.0232.017854-.0225.018746.9603,1.152328Zm7.0473.42073L48.5727,2.53779l.0183.01828.0189.01765l1.0235-1.09659Zm1.4725,4.9436l-1.4552-.36381-.01.04002-.0078.04052l1.473.28327ZM49.0023,17.3598l-1.473-.2833-.343,1.7833h1.816v-1.5Zm5.9954,8.5198l1.0207,1.0992.0203-.0189.0196-.0197-1.0606-1.0606ZM36.4855,27.247l1.4723.2869.3482-1.7869h-1.8205v1.5Zm-11.3598,0v-1.5h-1.2297l-.2411,1.2058l1.4708.2942ZM21.0236,47.7576l-1.4709-.2942-.3588,1.7942h1.8297v-1.5Zm11.4649,0v1.5h1.2359l.2364-1.2131-1.4723-.2869ZM45.5315,26.96l-3.997,20.5107l2.9446.5738l3.997-20.5106-2.9446-.5739ZM43.0068,49.2576h6.311v-3h-6.311v3Zm6.311,0c1.0092,0,1.8184.336,2.5156,1.0332l2.1213-2.1213c-1.2662-1.2662-2.8412-1.9119-4.6369-1.9119v3Zm2.5156,1.0332c.6972.6973,1.0332,1.5064,1.0332,2.5156h3c0-1.7957-.6457-3.3707-1.9119-4.6369l-2.1213,2.1213Zm1.0332,2.5156c0,.9162-.3196,1.6968-1.0332,2.4104l2.1213,2.1213c1.2498-1.2498,1.9119-2.7833,1.9119-4.5317h-3Zm-.9932,2.3718c-.6903.641-1.5122.9666-2.5556.9666v3c1.7615,0,3.3238-.586,4.5969-1.7682l-2.0413-2.1984Zm-2.5556.9666h-8.3094v3h8.3094v-3Zm-9.782,1.2143L36.8011,71.4536l2.945.5714l2.7348-14.0945-2.9451-.5714ZM36.7993,71.4629c-.1418.7563-.5016,1.3441-1.1232,1.8222l1.8291,2.3779c1.2017-.9243,1.9638-2.1596,2.2427-3.6472l-2.9486-.5529Zm-1.1689,1.8589c-.5315.4429-1.2275.7041-2.1952.7041v3c1.5567,0,2.9643-.44,4.1157-1.3995l-1.9205-2.3046Zm-2.1952.7041c-1.2256,0-2.1037-.3516-2.7659-.9666l-2.0414,2.1984c1.3012,1.2082,2.9475,1.7682,4.8073,1.7682v-3Zm-2.7259-.928c-.6821-.682-1.0333-1.5192-1.0333-2.6208h-3c0,1.8436.6305,3.4607,1.9119,4.7421l2.1214-2.1213ZM29.676,70.4771c0-.6176.0382-.9148.0604-1.0035l-2.9104-.7277c-.118.4723-.15,1.0867-.15,1.7312h3Zm.0781-1.0836L31.963,57.9286l-2.9458-.5676-2.2089,11.465l2.9458.5675Zm.736-13.2487h-11.3598v3h11.3598v-3ZM17.6599,57.3485l-2.84,14.0945l2.9409.5926l2.84-14.0945-2.9409-.5926ZM14.8161,71.4629c-.1418.7563-.5017,1.3441-1.1232,1.8222L15.522,75.663c1.2016-.9243,1.9637-2.1596,2.2427-3.6472l-2.9486-.5529Zm-1.1689,1.8589c-.5649.4706-1.2045.7041-1.9849.7041v3c1.4636,0,2.7873-.4677,3.9054-1.3995l-1.9205-2.3046Zm-1.9849.7041c-1.1933,0-2.058-.3653-2.72591-1.0332L6.81507,75.114c1.29552,1.2955,2.95519,1.9119,4.84723,1.9119v-3ZM8.93639,72.9927c-.6679-.6679-1.03322-1.5326-1.03322-2.7259h-3c0,1.892.61639,3.5517,1.9119,4.8472l2.12132-2.1213ZM7.90317,70.2668c0-.4407.03357-.6859.0604-.7932l-2.91043-.7277c-.11341.4537-.14997.9798-.14997,1.5209h3Zm.0781-.8733L10.1901,57.9286L7.24429,57.361L5.03544,68.826l2.94583.5675ZM8.7172,56.1448h-2.94512v3h2.94512v-3Zm-2.94512,0c-1.00916,0-1.81836-.336-2.51556-1.0332L1.1352,57.2329c1.2662,1.2662,2.84115,1.9119,4.63688,1.9119v-3ZM3.25652,55.1116c-.69721-.6972-1.03322-1.5064-1.03322-2.5156h-3.000003c0,1.7958.645691,3.3707,1.911903,4.6369l2.12132-2.1213ZM2.2233,52.596c0-.9126.31525-1.6371.99323-2.2666L1.17518,48.131c-1.285436,1.1936-1.951883,2.713-1.951883,4.465h3.000003Zm1.03322-2.3052c.6972-.6972,1.5064-1.0332,2.51556-1.0332v-3c-1.79573,0-3.37068.6457-4.63688,1.9119l2.12132,2.1213Zm2.51556-1.0332h4.94362v-3h-4.94362v3ZM12.188,48.0445l3.9969-20.5106-2.9446-.5739L9.24337,47.4707l2.94463.5738ZM14.7126,25.747h-6.83686v3h6.83686v-3Zm-6.83686,0c-1.00916,0-1.81836-.3361-2.51556-1.0333L3.23885,26.835c1.26621,1.2663,2.84116,1.912,4.63689,1.912v-3ZM5.36018,24.7137c-.69721-.6972-1.03323-1.5064-1.03323-2.5155h-3c0,1.7957.6457,3.3706,1.9119,4.6368l2.12133-2.1213ZM4.32695,22.1982c0-.9126.31526-1.6371.99324-2.2667L3.27884,17.7331c-1.28544,1.1936-1.95189,2.713-1.95189,4.4651h3ZM5.36018,19.893c.6972-.6972,1.5064-1.0332,2.51556-1.0332v-3c-1.79573,0-3.37068.6456-4.63689,1.9119L5.36018,19.893Zm2.51556-1.0332h8.83536v-3h-8.83536v3ZM18.1837,17.6451L20.8133,4.07654l-2.9452-.57077L15.2385,17.0744l2.9452.5707ZM20.815,4.06759c.149-.79476.5022-1.39095,1.0637-1.85885l-1.9206-2.304668c-1.1214.934532-1.82,2.161518-2.0917,3.610648l2.9486.55287Zm1.0637-1.85886c.5315-.44293,1.2275-.70416,2.1952-.70416v-3c-1.5567,0-2.9643.43999-4.1158,1.399506L21.8787,2.20873Zm2.1952-.70416c1.1933,0,2.058.36532,2.7259,1.03322l2.1214-2.121319c-1.2956-1.295513-2.9552-1.911901-4.8473-1.911901v3Zm2.7259,1.03322c.682.68201,1.0333,1.51922,1.0333,2.62075h3c0-1.84361-.6305-3.46067-1.9119-4.742069L26.7998,2.53779Zm1.0333,2.62075c0,.53027-.0362.8015-.0604.89839l2.9104.7276c.116-.46408.15-1.03431.15-1.62599h-3Zm-.0756.9653L25.5487,17.0629l2.9407.5937L30.6982,6.71763l-2.9407-.59379ZM27.019,18.8598h11.3598v-3h-11.3598v3Zm12.8324-1.2147L42.481,4.07654l-2.9452-.57077L36.9062,17.0744l2.9452.5707ZM42.4827,4.06759c.149-.79476.5022-1.39095,1.0637-1.85885l-1.9206-2.304668c-1.1214.934532-1.82,2.161518-2.0918,3.610648l2.9487.55287Zm1.018-1.82225c.6235-.47964,1.3805-.74077,2.3461-.74077v-3c-1.5589,0-2.9756.44009-4.1753,1.362902L43.5007,2.24534Zm2.3461-.74077c1.1933,0,2.058.36532,2.7259,1.03322L50.694,0.416471c-1.2955-1.295513-2.9552-1.911901-4.8472-1.911901v3Zm2.7631,1.06915c.7241.67588,1.1012,1.52949,1.1012,2.69h3c0-1.92486-.6748-3.59564-2.0543-4.883173L48.6099,2.57372Zm1.1012,2.69c0,.44063-.0336.68586-.0604.7932l2.9104.72763c.1134-.45364.15-.97975.15-1.52083h-3Zm-.0782.87374L47.5293,17.0765l2.946.5665L52.5789,6.704l-2.946-.56654ZM49.0023,18.8598h2.4192v-3h-2.4192v3Zm2.4192,0c1.0091,0,1.8183.336,2.5155,1.0332l2.1213-2.1213c-1.2662-1.2662-2.8411-1.9119-4.6368-1.9119v3ZM53.937,19.893c.6972.6972,1.0332,1.5064,1.0332,2.5155h3c0-1.7957-.6457-3.3706-1.9119-4.6368L53.937,19.893Zm1.0332,2.5155c0,.9163-.3196,1.6968-1.0332,2.4104l2.1213,2.1213c1.2499-1.2498,1.9119-2.7832,1.9119-4.5317h-3Zm-.9932,2.3719c-.6903.6409-1.5122.9666-2.5555.9666v3c1.7615,0,3.3237-.586,4.5969-1.7682L53.977,24.7804Zm-2.5555.9666h-4.4177v3h4.4177v-3Zm-14.936,0h-11.3598v3h11.3598v-3ZM23.6549,26.9528L19.5527,47.4634l2.9418.5884l4.1021-20.5107-2.9417-.5883ZM21.0236,49.2576h11.4649v-3h-11.4649v3Zm12.9372-1.2131l3.997-20.5106-2.9446-.5739-3.997,20.5107l2.9446.5738Z" fill="#00aee9"/><mask id="eo0viI1bVxK4" mask-type="luminance" x="-150%" y="-150%" height="400%" width="400%"><rect width="59" height="80" rx="0" ry="0" transform="translate(-1-2)" fill="#fff"/><path d="M47.0038,27.247l-3.997,20.5106h6.311c1.4024,0,2.5945.4909,3.5762,1.4726s1.4726,2.1738,1.4726,3.5762c0,1.3323-.4909,2.4893-1.4726,3.471-.9817.9116-2.1738,1.3674-3.5762,1.3674h-8.3094L38.2736,71.7393c-.2104,1.122-.7713,2.0336-1.6829,2.7348-.8415.7012-1.8933,1.0518-3.1555,1.0518-1.5427,0-2.8049-.4558-3.7866-1.3674-.9817-.9817-1.4726-2.2088-1.4726-3.6814c0-.6311.0351-1.0869.1052-1.3673l2.2089-11.465h-11.3598L16.2904,71.7393c-.2104,1.122-.7714,2.0336-1.683,2.7348-.8414.7012-1.8231,1.0518-2.9451,1.0518-1.5427,0-2.80486-.4908-3.78657-1.4725s-1.47256-2.2439-1.47256-3.7866c0-.4909.03506-.8766.10519-1.157L8.7172,57.6448h-2.94512c-1.40244,0-2.59452-.4908-3.57622-1.4725s-1.472565-2.1738-1.472565-3.5763c0-1.3323.490855-2.4542,1.472565-3.3658.9817-.9817,2.17378-1.4726,3.57622-1.4726h4.94362L14.7126,27.247h-6.83687c-1.40243,0-2.59451-.4909-3.57621-1.4726s-1.47257-2.1738-1.47257-3.5762c0-1.3323.49086-2.4543,1.47257-3.3659.9817-.9817,2.17378-1.4725,3.57621-1.4725h8.83537L19.3407,3.79116c.2103-1.12195.7363-2.03354,1.5777-2.73476.8415-.701218,1.8933-1.05183,3.1555-1.05183c1.5427,0,2.8049.490854,3.7866,1.47256s1.4726,2.20884,1.4726,3.68141c0,.56097-.0351.98171-.1052,1.26219L27.019,17.3598h11.3598L41.0084,3.79116c.2103-1.12195.7362-2.03354,1.5777-2.73476.9116-.701218,1.9985-1.05183,3.2607-1.05183c1.5427,0,2.8048.490854,3.7866,1.47256c1.0518.98171,1.5777,2.2439,1.5777,3.78659c0,.49085-.0351.87653-.1052,1.15701L49.0023,17.3598h2.4192c1.4024,0,2.5945.4908,3.5762,1.4725s1.4725,2.1738,1.4725,3.5762c0,1.3324-.4908,2.4894-1.4725,3.4711-.9817.9116-2.1738,1.3674-3.5762,1.3674h-4.4177Zm-10.5183,0h-11.3598L21.0236,47.7576h11.4649l3.997-20.5106Z" transform="translate(.000001 0)"/></mask></g></svg>
