<?xml version="1.0" encoding="utf-8"?>
<!-- Generator: Adobe Illustrator 28.2.0, SVG Export Plug-In . SVG Version: 6.00 Build 0)  -->
<svg version="1.1" id="egaoUHYy9LO1" shape-rendering="geometricPrecision" text-rendering="geometricPrecision"
	 xmlns="http://www.w3.org/2000/svg" xmlns:xlink="http://www.w3.org/1999/xlink" x="0px" y="0px" viewBox="0 0 32 75"
	 style="enable-background:new 0 0 32 75;" xml:space="preserve">
<style type="text/css">
	.st0{fill:#FFFFFF;filter:url(#Adobe_OpacityMaskFilter);}
	.st1{mask:url(#egaoUHYy9LO4_00000065778440946911209810000010018423653132531859_);}
	.st2{fill:#FFFFFF;}
</style>
<defs>
	<filter id="Adobe_OpacityMaskFilter" filterUnits="userSpaceOnUse" x="0.4" y="2.8" width="31" height="69.6">
		<feColorMatrix  type="matrix" values="1 0 0 0 0  0 1 0 0 0  0 0 1 0 0  0 0 0 1 0"/>
	</filter>
</defs>
<mask maskUnits="userSpaceOnUse" x="0.4" y="2.8" width="31" height="69.6" id="egaoUHYy9LO4_00000065778440946911209810000010018423653132531859_">
	<rect x="0.1" y="2.5" class="st0" width="31.7" height="72.7"/>
	<path d="M11.1,67.9c-0.3,1.1-0.9,2-1.8,2.5c-0.8,0.6-1.8,0.9-2.8,0.9c-1.3,0-2.4-0.4-3.4-1.3c-1-0.8-1.5-1.8-1.5-3.1
		c0-0.5,0.1-1.1,0.2-1.7L20.7,7.3c0.4-1.1,1-2,1.8-2.5c0.9-0.6,1.8-0.9,2.8-0.9c1.3,0,2.5,0.4,3.5,1.3c1,0.8,1.5,1.8,1.5,3.1
		c0,0.5-0.1,1.1-0.2,1.7L11.1,67.9z"/>
</mask>
<g transform="matrix(.932301 0 0 0.908152 1.080027 3.452421)" class="st1">
	<path class="st2" d="M10.7,70.9l-1.2-0.4l0,0l0,0L10.7,70.9z M8.8,73.7l-0.7-1.1l0,0l0,0L8.8,73.7z M2.2,73.2L3,72.3l0,0l0,0
		L2.2,73.2z M0.8,67.9l-1.2-0.4l0,0l0,0L0.8,67.9z M21.1,4.3l-1.2-0.4l0,0l0,0C19.9,3.9,21.1,4.3,21.1,4.3z M23,1.5l0.7,1l0,0l0,0
		C23.7,2.6,23,1.5,23,1.5z M29.7,2l-0.8,0.9l0,0l0,0C28.9,2.9,29.7,2,29.7,2z M31.1,7.3l1.2,0.4l0,0l0,0C32.3,7.6,31.1,7.3,31.1,7.3
		z M9.5,70.6c-0.3,1-0.8,1.6-1.4,2l1.3,2.1c1.2-0.8,2.1-2,2.5-3.5L9.5,70.6z M8,72.6c-0.7,0.5-1.4,0.7-2.3,0.7v2.5
		c1.4,0,2.6-0.4,3.8-1.2L8,72.6z M5.8,73.4c-1,0-1.9-0.3-2.8-1.1l-1.7,1.9c1.3,1.1,2.8,1.7,4.5,1.7C5.8,75.9,5.8,73.4,5.8,73.4z
		 M3,72.2c-0.8-0.6-1.1-1.4-1.1-2.5h-2.5c0,1.8,0.7,3.3,2,4.4C1.4,74.2,3,72.2,3,72.2z M1.8,69.8c0-0.5,0.1-1,0.2-1.5l-2.4-0.7
		c-0.2,0.7-0.3,1.5-0.3,2.2C-0.7,69.8,1.8,69.8,1.8,69.8z M2,68.3L22.3,4.6l-2.4-0.8L-0.4,67.5C-0.4,67.5,2,68.3,2,68.3z M22.3,4.7
		c0.3-1,0.8-1.7,1.4-2.1l-1.4-2.1c-1.2,0.8-2,1.9-2.4,3.4C19.9,3.9,22.3,4.7,22.3,4.7z M23.7,2.6C24.5,2,25.2,1.8,26,1.8v-2.5
		c-1.3,0-2.6,0.4-3.7,1.2C22.3,0.5,23.7,2.6,23.7,2.6z M26,1.8c1.1,0,2,0.4,2.9,1.1L30.6,1c-1.3-1.1-2.8-1.7-4.6-1.7
		C26-0.7,26,1.8,26,1.8z M28.9,2.9c0.8,0.6,1.1,1.4,1.1,2.5h2.5c0-1.8-0.7-3.3-2-4.4C30.6,1,28.9,2.9,28.9,2.9z M30.1,5.4
		c0,0.5-0.1,1-0.2,1.5l2.4,0.7c0.2-0.7,0.3-1.5,0.3-2.2C32.6,5.4,30.1,5.4,30.1,5.4z M29.9,6.9L9.5,70.5l2.4,0.8L32.3,7.6
		C32.3,7.6,29.9,6.9,29.9,6.9z"/>
</g>
</svg>
