<svg id="egaoUHYy9LO1" xmlns="http://www.w3.org/2000/svg" xmlns:xlink="http://www.w3.org/1999/xlink" viewBox="0 0 32 75" shape-rendering="geometricPrecision" text-rendering="geometricPrecision"><g transform="matrix(.932301 0 0 0.908152 1.080027 3.452421)" mask="url(#egaoUHYy9LO4)"><path d="M10.7374,70.9174l-1.20092-.3836-.00592.0185-.00536.0187l1.2122.3464ZM8.79251,73.658l-.66819-1.0691-.03966.0247-.0377.0277.74555,1.0167Zm-6.63043-.4421l.83759-.9422-.01503-.0134-.01546-.0129-.8071.9685ZM0.835991,67.9116l-1.201439-.3821-.007965.025-.006916.0254l1.21632.3317ZM21.0809,4.25942l-1.196-.39868-.0028.00826-.0026.0083l1.2014.38212Zm1.9449-2.74058l.6994,1.049.0075-.00499.0074-.0051-.7143-1.03891Zm6.7189.44203l-.8376.94229.015.01336.0155.01288.8071-.96853Zm1.3261,5.30435l1.2009.38364.0083-.0258.0071-.02612-1.2163-.33172ZM9.5252,70.571c-.28231.9881-.76368,1.6196-1.40088,2.0179L9.4607,74.7271c1.2488-.7805,2.064-1.9761,2.489-3.4634L9.5252,70.571ZM8.04696,72.6413c-.6629.4861-1.40241.7284-2.26025.7284v2.5215c1.38179,0,2.64614-.4061,3.75136-1.2166L8.04696,72.6413Zm-2.26025.7284c-1.03123,0-1.94506-.3476-2.78704-1.096L1.32449,74.1582c1.27975,1.1376,2.78234,1.733,4.46222,1.733v-2.5215ZM2.96918,72.2474c-.76546-.6379-1.13766-1.4285-1.13766-2.4793h-2.521492c0,1.7782.688664,3.2861,2.044942,4.4164l1.61421-1.9371ZM1.83152,69.7681c0-.4629.06942-.9698.22079-1.5248l-2.432639-.6634c-.202255.7416-.309643,1.4724-.309643,2.1882h2.521492Zm.20591-1.4744L22.2824,4.64155L19.8795,3.8773L-0.365448,67.5295l2.402878.7642ZM22.277,4.6581c.3446-1.03386.8466-1.68921,1.4482-2.09026L22.3265,0.469839C21.16,1.24753,20.3654,2.41924,19.8849,3.86074l2.3921.79736Zm1.4631-2.10035c.7502-.51577,1.506-.75063,2.2915-.75063v-2.521484c-1.3362,0-2.5842.41345-3.72,1.194299L23.7401,2.55775Zm2.2915-.75063c1.1046,0,2.0445.3574,2.8755,1.09604l1.6752-1.88458c-1.2908-1.147347-2.8262-1.732944-4.5507-1.732944v2.521484Zm2.906,1.12228c.7654.63788,1.1376,1.42847,1.1376,2.4793h2.5215c0-1.77816-.6886-3.28613-2.0449-4.416361L28.9376,2.9294Zm1.1376,2.4793c0,.46292-.0694.96977-.2207,1.52479l2.4326.66345c.2022-.74159.3096-1.47242.3096-2.18824h-2.5215Zm-.2054,1.47288L9.53648,70.5338l2.40192.7672L32.2717,7.64886l-2.4019-.76728Z" fill="#00aee9"/><mask id="egaoUHYy9LO4" mask-type="luminance" x="-150%" y="-150%" height="400%" width="400%"><rect width="34" height="80" rx="0" ry="0" transform="translate(-1-1)" fill="#fff"/><path d="M10.7374,70.9174c-.3536,1.2377-1.00189,2.1512-1.94489,2.7406-.88406.6483-1.88599.9724-3.0058.9724-1.35555,0-2.56376-.4715-3.62463-1.4145-1.06087-.884-1.591308-2.0333-1.591308-3.4478c0-.5894.088406-1.2082.265218-1.8565L21.0809,4.25942c.4126-1.23768,1.0609-2.15121,1.9449-2.74058.943-.648307,1.945-.97246,3.0058-.97246c1.4145,0,2.6522.4715,3.7131,1.41449c1.0609.88406,1.5913,2.03333,1.5913,3.44783c0,.58937-.0884,1.20821-.2652,1.85652L10.7374,70.9174Z"/></mask></g></svg>
